<?xml version="1.0" encoding="utf-8"?>
<!-- Generator: Adobe Illustrator 25.4.1, SVG Export Plug-In . SVG Version: 6.00 Build 0)  -->
<svg version="1.1" id="Layer_1" xmlns="http://www.w3.org/2000/svg" xmlns:xlink="http://www.w3.org/1999/xlink" x="0px" y="0px"
	 viewBox="0 0 72 72" style="enable-background:new 0 0 72 72;" xml:space="preserve">
<style type="text/css">
	.st0{fill:#43D700;}
	.st1{fill:#27C9FD;}
	.st2{fill:#FFFFFF;}
</style>
<path class="st0" d="M0.71,43.15C4.03,59.61,18.57,72,36,72s31.97-12.39,35.29-28.85H0.71z"/>
<path class="st1" d="M72,36C72,16.12,55.88,0,36,0S0,16.12,0,36c0,2.45,0.25,4.84,0.71,7.15h70.57C71.75,40.84,72,38.45,72,36z"/>
<path class="st2" d="M34.75,49.27c-0.62,0-1.46,0-2.08,0V29.9L61,19.9L28.5,8.44v8.12l0,0v32.92C21.21,50.31,16,52.6,16,55.31
	c0,3.54,8.33,6.25,18.75,6.25s18.75-2.71,18.75-6.25S45.17,49.27,34.75,49.27z"/>
</svg>